# xmcd
#
# Track frame offsets:
#	150
#	11165
#	21582
#	33454
#	45968
#	55422
#	69205
#	78534
#	87999
#	105166
#
# Disc length: 1621
#
# Revision: 6
# Processed by: cddbd v1.5.1PL0 Copyright (c) Steve Scherf et al.
# Submitted via: CDex 1.50beta10
# Normalized: r5:DSETVAR1,TDELIM( - )
#
DISCID=7506530a
DTITLE=Various Artist - Country Classics Volume 3
DYEAR=1900
DGENRE=Country
TTITLE0=Tom T. Hall - Fox On The Run
TTITLE1=Jim Reeves - Anna Marie
TTITLE2=Brenda Lee - Silver Threads and Golden Needles
TTITLE3=Johnny Cash - Folsom Prison Blues
TTITLE4=Loretta Lynn - Fist City
TTITLE5=Jerry Lee Lewis - Another Place, Another Time
TTITLE6=Jim Reeves - Billy Bayou
TTITLE7=Loretta Lynn - Y'All Come
TTITLE8=Johnny Cash - Sunday Morning Coming Down
TTITLE9=Brenda Lee - Coming On Strong
EXTD=
EXTT0=
EXTT1=
EXTT2=
EXTT3=
EXTT4=
EXTT5=
EXTT6=
EXTT7=
EXTT8=
EXTT9=
PLAYORDER=
